<?xml version="1.0" encoding="utf-8"?>
<svg xmlns="http://www.w3.org/2000/svg" viewBox="52.0415 12 227.636 311.3" width="227.636px" height="311.3px" xmlns:bx="https://boxy-svg.com"><defs><linearGradient bx:pinned="true" id="color-0"><stop style="stop-color: #f46b45;" offset="0"/><stop style="stop-color: #eea849;" offset="1"/></linearGradient><linearGradient gradientUnits="userSpaceOnUse" x1="996.192" y1="1071.888" x2="996.192" y2="2839.177" id="color-0-1" href="#color-0"/><linearGradient gradientUnits="userSpaceOnUse" x1="1680.019" y1="27" x2="1680.019" y2="3140" id="color-0-2" href="#color-0"/><linearGradient bx:pinned="true" id="color-1"><stop style="stop-color: #181818;" offset="0"/><stop offset="0.185" style="stop-color: rgb(101, 78, 14);"/><stop style="stop-color: #ba8b02;" offset="1"/></linearGradient><linearGradient id="color-1-0" href="#color-1" gradientUnits="userSpaceOnUse" x1="996.192" y1="1071.888" x2="996.192" y2="2839.177" spreadMethod="reflect"/><linearGradient id="color-1-1" href="#color-1" gradientUnits="userSpaceOnUse" x1="963.686" y1="-2.169" x2="963.686" y2="3110.831" spreadMethod="repeat" gradientTransform="matrix(0.964858, -0.26277, 0.252465, 0.927022, 738.465729, 398.899359)"/><linearGradient id="color-0-3" href="#color-0" gradientUnits="userSpaceOnUse" x1="2476.727" y1="2261.315" x2="2476.727" y2="2896.744"/><linearGradient id="color-1-2" href="#color-1" gradientUnits="userSpaceOnUse" x1="2476.727" y1="2261.315" x2="2476.727" y2="2896.744"/><bx:export><bx:file format="png"/><bx:file format="svg"/></bx:export></defs><g transform="matrix(0.10000000149011612, 0, 0, -0.10000000149011612, 0, 326)" id="object-1"><title>Object</title><g><title>Star</title><path d="M2470 2893 c0 -5 -7 -63 -16 -128 -10 -84 -20 -125 -32 -137 -12 -12 -51 -20 -137 -29 -66 -6 -124 -15 -128 -19 -5 -4 49 -13 118 -20 86 -9 133 -18 146 -29 16 -13 23 -41 35 -141 8 -68 17 -126 19 -128 6 -6 12 26 28 152 10 73 20 114 30 121 9 6 70 17 136 24 67 7 124 17 127 22 3 5 -3 9 -13 9 -79 3 -236 29 -249 42 -15 14 -44 167 -44 230 0 15 -4 30 -10 33 -5 3 -10 2 -10 -2z" style="fill: url(&quot;#color-0-3&quot;); stroke: url(&quot;#color-1-2&quot;); stroke-linecap: round; stroke-width: 10px;"><title>Star</title></path></g><g id="object-0"><title>Base</title><path d="M 1350 2815 C 1244 2785 1086 2707 1000 2641 C 920 2581 795 2455 736 2376 C 679 2299 606 2160 574 2068 C 485 1805 507 1525 639 1273 C 680 1195 762 1078 780 1072 C 785 1070 778 1095 765 1127 C 704 1279 687.86 1477.86 695.86 1672.86 C 712.86 2091.86 933 2437 1330 2655 L 1422 2705 L 1450 2773 C 1478 2839 1478 2840 1457 2839 C 1445 2839 1397 2828 1350 2815 Z" style="stroke-miterlimit: 9.7; paint-order: stroke; stroke-width: 20px; stroke-linecap: round; stroke: url(&quot;#color-0-1&quot;); fill: url(&quot;#color-1-0&quot;); fill-rule: evenodd;"><title>Horse Hair</title></path><path d="M1762 3100 c-78 -94 -162 -265 -209 -428 -16 -56 -21 -63 -53 -73 -196 -63 -409 -230 -534 -418 -109 -163 -164 -334 -173 -536 -8 -185 25 -347 106 -521 105 -222 244 -359 531 -519 221 -124 380 -240 467 -341 26 -30 48 -52 50 -50 8 8 -40 175 -74 256 -71 173 -221 392 -405 593 -45 50 -77 88 -71 86 28 -10 222 -181 310 -273 114 -119 183 -215 246 -341 73 -145 102 -255 114 -418 l6 -90 23 44 c13 24 36 82 51 129 26 79 28 96 27 250 -1 189 -16 267 -83 405 -56 117 -141 223 -361 451 -109 112 -218 234 -244 271 -85 125 -119 277 -97 428 7 47 16 85 20 85 4 0 39 -50 79 -110 123 -186 191 -241 383 -305 136 -46 200 -84 290 -171 88 -85 126 -104 204 -104 128 0 222 101 200 218 -11 62 -50 136 -150 286 -53 79 -140 228 -193 332 -120 232 -180 322 -294 441 -48 51 -97 111 -108 134 -33 64 -42 141 -27 242 7 48 11 87 8 87 -4 0 -21 -18 -39 -40z m246 -791 c40 -20 122 -107 122 -130 0 -5 -26 4 -58 20 -32 16 -78 34 -102 41 -25 6 -53 19 -62 27 -18 16 -24 44 -11 56 13 14 68 6 111 -14z" style="fill-rule: evenodd; stroke-miterlimit: 9.7; paint-order: stroke; stroke-width: 20px; stroke-linecap: round; stroke: url(&quot;#color-0-2&quot;); fill: url(&quot;#color-1-1&quot;);"><title>Horse</title></path></g></g></svg>