<?xml version="1.0" encoding="utf-8"?>
<svg xmlns="http://www.w3.org/2000/svg" viewBox="0 0 512 512" width="512" height="512" xmlns:bx="https://boxy-svg.com"><defs><bx:export><bx:file format="svg" path="colored.svg"/><bx:file format="png" path="colored.png" dpi="400"/></bx:export><linearGradient bx:pinned="true" id="color-0"><stop style="stop-color: #fdc830;" offset="0"/><stop style="stop-color: #f37335;" offset="1"/></linearGradient><linearGradient id="color-0-0" href="#color-0" gradientUnits="userSpaceOnUse" x1="61.033" y1="305.178" x2="61.033" y2="405.178" gradientTransform="matrix(0.874632, 0.484787, -0.583686, 1.053062, 244.14816, -51.08767)"/><linearGradient id="color-0-1" href="#color-0" gradientUnits="userSpaceOnUse" x1="144.384" y1="404.24" x2="144.384" y2="504.24"/><linearGradient id="color-0-2" href="#color-0" gradientUnits="userSpaceOnUse" x1="438.599" y1="2.646" x2="438.599" y2="152.646" gradientTransform="matrix(0.70739, 0.706824, -0.822466, 0.823126, 200.822323, -306.89086)"/><linearGradient id="color-0-3" href="#color-0" gradientUnits="userSpaceOnUse" x1="279.499" y1="-0.001" x2="279.499" y2="512.001" gradientTransform="matrix(0.824387, 0.566025, -0.567413, 0.826409, 173.779308, -148.917705)"/><linearGradient id="color-0-4" href="#color-0" gradientUnits="userSpaceOnUse" x1="160.07" y1="49.476" x2="160.07" y2="340.145"/></defs><a style=""><path d="M 221.992 53.453 C 203.44 58.387 175.788 71.216 160.736 82.071 C 146.735 91.939 124.857 112.663 114.531 125.656 C 104.555 138.32 91.779 161.182 86.178 176.313 C 70.602 219.569 74.452 265.622 97.555 307.068 C 104.73 319.897 119.082 339.141 122.232 340.127 C 123.107 340.456 121.882 336.345 119.607 331.081 C 108.931 306.082 106.106 273.375 107.506 241.303 C 110.481 172.389 149.01 115.623 218.492 79.768 L 234.594 71.545 L 239.494 60.36 C 244.395 49.505 244.395 49.341 240.719 49.505 C 238.619 49.505 230.218 51.315 221.992 53.453 Z" style="fill: url(&quot;#color-0-4&quot;);"/><path d="M 293.853 6.578 C 280.196 22.038 265.489 50.163 257.262 76.972 C 254.46 86.183 253.585 87.334 247.982 88.979 C 213.667 99.34 176.376 126.807 154.492 157.728 C 135.409 184.537 125.779 212.662 124.204 245.885 C 122.803 276.312 128.581 302.957 142.762 331.575 C 161.144 368.088 185.48 390.62 235.726 416.936 C 274.419 437.33 302.256 456.409 317.487 473.021 C 322.04 477.955 325.892 481.573 326.24 481.244 C 327.642 479.929 319.239 452.462 313.287 439.139 C 300.855 410.686 274.596 374.666 242.38 341.608 C 234.501 333.384 228.898 327.134 229.949 327.463 C 234.851 329.108 268.817 357.232 284.223 372.364 C 304.182 391.936 316.262 407.725 327.292 428.449 C 340.073 452.297 345.149 470.389 347.251 497.198 L 348.301 512.001 L 352.326 504.764 C 354.605 500.816 357.688 490.936 361.258 483.547 C 368.084 469.416 367.919 464.353 367.968 442 C 368.032 412.968 363.183 398.515 351.453 375.818 C 341.649 356.575 326.767 339.14 288.251 301.641 C 269.167 283.22 250.083 263.154 245.53 257.069 C 230.65 236.51 224.698 211.51 228.548 186.675 C 229.774 178.945 231.35 172.695 232.049 172.695 C 232.751 172.695 238.878 180.918 245.882 190.787 C 267.415 221.379 279.321 230.424 312.935 240.951 C 336.746 248.516 347.951 254.766 363.708 269.075 C 379.115 283.056 385.767 286.18 399.424 286.18 C 421.833 286.18 438.29 269.569 434.438 250.326 C 432.514 240.128 425.685 227.957 408.176 203.287 C 398.899 190.293 383.667 165.787 374.387 148.682 C 353.378 110.524 342.874 95.722 322.915 76.15 C 314.512 67.762 305.933 57.893 304.007 54.11 C 298.23 43.584 296.653 30.92 299.28 14.308 C 300.505 6.414 301.205 -0.001 300.682 -0.001 C 299.98 -0.001 297.005 2.96 293.853 6.578 Z M 336.921 136.675 C 343.924 139.965 358.281 154.274 358.281 158.057 C 358.281 158.879 353.728 157.399 348.126 154.767 C 342.524 152.136 334.471 149.175 330.269 148.024 C 325.892 147.037 320.989 144.899 319.414 143.583 C 316.262 140.952 315.212 136.346 317.487 134.373 C 319.764 132.07 329.392 133.386 336.921 136.675 Z" style="fill-rule: evenodd; paint-order: fill; transform-origin: 279.5px 256px 0px; fill: url(&quot;#color-0-3&quot;);"/><path fill-rule="evenodd" clip-rule="evenodd" d="M 432.599 123.394 C 436.6 132.517 438.601 142.27 438.601 152.646 C 438.601 142.27 440.536 132.517 444.413 123.394 C 448.411 114.27 475.225 87.52 484.349 83.646 C 493.474 79.647 503.225 77.646 513.599 77.646 C 503.225 77.646 493.474 75.706 484.349 71.835 C 475.225 67.831 467.288 62.457 460.535 55.707 C 453.788 48.96 448.411 41.02 444.413 31.896 C 440.536 22.77 438.601 13.021 438.601 2.646 C 438.601 13.021 436.6 22.77 432.599 31.896 C 428.725 41.02 423.413 48.96 416.663 55.707 C 409.913 62.457 401.974 67.831 392.849 71.835 C 383.725 75.706 373.975 77.646 363.599 77.646 C 373.975 77.646 383.725 79.647 392.849 83.646 C 401.974 87.52 409.913 92.832 416.663 99.585 C 423.413 106.332 428.725 114.27 432.599 123.394 Z" style="fill: url(&quot;#color-0-2&quot;);"/></a><g><title>Stars</title><path fill-rule="evenodd" clip-rule="evenodd" d="M 57.033 385.677 C 59.7 391.759 61.034 398.261 61.034 405.178 C 61.034 398.261 62.324 391.759 64.909 385.677 C 67.574 379.594 85.45 361.761 91.533 359.178 C 97.616 356.512 104.117 355.178 111.033 355.178 C 104.117 355.178 97.616 353.885 91.533 351.304 C 85.45 348.635 80.159 345.052 75.657 340.552 C 71.159 336.054 67.574 330.761 64.909 324.678 C 62.324 318.594 61.034 312.095 61.034 305.178 C 61.034 312.095 59.7 318.594 57.033 324.678 C 54.45 330.761 50.909 336.054 46.409 340.552 C 41.909 345.052 36.616 348.635 30.533 351.304 C 24.45 353.885 17.95 355.178 11.033 355.178 C 17.95 355.178 24.45 356.512 30.533 359.178 C 36.616 361.761 41.909 365.302 46.409 369.804 C 50.909 374.302 54.45 379.594 57.033 385.677 Z" style="fill: url(&quot;#color-0-0&quot;); paint-order: stroke; fill-rule: evenodd;"/><path fill-rule="evenodd" clip-rule="evenodd" d="M 140.384 484.739 C 143.051 490.821 144.385 497.323 144.385 504.24 C 144.385 497.323 145.675 490.821 148.26 484.739 C 150.925 478.656 168.801 460.823 174.884 458.24 C 180.967 455.574 187.468 454.24 194.384 454.24 C 187.468 454.24 180.967 452.947 174.884 450.366 C 168.801 447.697 163.51 444.114 159.008 439.614 C 154.51 435.116 150.925 429.823 148.26 423.74 C 145.675 417.656 144.385 411.157 144.385 404.24 C 144.385 411.157 143.051 417.656 140.384 423.74 C 137.801 429.823 134.26 435.116 129.76 439.614 C 125.26 444.114 119.967 447.697 113.884 450.366 C 107.801 452.947 101.301 454.24 94.384 454.24 C 101.301 454.24 107.801 455.574 113.884 458.24 C 119.967 460.823 125.26 464.364 129.76 468.866 C 134.26 473.364 137.801 478.656 140.384 484.739 Z" style="fill: url(&quot;#color-0-1&quot;); paint-order: stroke; fill-rule: evenodd;"/></g></svg>